<svg xmlns="http://www.w3.org/2000/svg" viewBox="0 0 24 24" width="20" height="20"><path fill="#fff" d="M20.5 3.5A11.7 11.7 0 002 20.8L1 23l2.3-.9a11.7 11.7 0 0017.2-10.4c0-3.1-1.2-6-3.5-8.2zM12 21a9.1 9.1 0 01-4.6-1.2l-.3-.2-2.7.9.9-2.6-.2-.3A9.2 9.2 0 1121.2 12 9.2 9.2 0 0112 21zm5-6.9c-.3-.2-1.8-.9-2.1-1-.3-.1-.5-.2-.7.2l-.6.7c-.2.2-.3.2-.6.1-1.8-.9-3-2.7-3.1-2.9-.2-.3 0-.4.1-.6l.5-.5c.2-.2.2-.3.3-.5.1-.2 0-.4 0-.5L10 7c-.2-.4-.4-.3-.7-.3h-.6c-.2 0-.5.1-.7.3-.2.2-1 1-1 2.4s1 2.8 1.2 3c.1.2 2 3.1 4.8 4.3.7.3 1.2.5 1.7.6.7.2 1.3.2 1.8.1.6-.1 1.8-.8 2-1.5.3-.7.3-1.3.2-1.5 0-.1-.3-.2-.6-.4z"/></svg>